# Blender 3.5.0
# www.blender.org
mtllib PRightArm.mtl
o Cube
v 0.076813 -0.200741 -0.296251
v -1.800579 -1.919479 -0.553114
v 0.076813 -0.200741 0.296251
v -1.800579 -1.919479 0.553115
v -0.125374 0.208501 -0.296251
v -2.424601 -0.987491 -0.553114
v -0.125374 0.208501 0.296251
v -2.424601 -0.987491 0.553115
vn 0.8965 0.4429 -0.0000
vn 0.0856 0.0527 0.9949
vn -0.4615 0.8872 -0.0000
vn -0.8309 -0.5564 -0.0000
vn 0.6753 -0.7376 -0.0000
vn 0.0856 0.0527 -0.9949
vt 0.625000 0.500000
vt 0.375000 0.500000
vt 0.625000 0.750000
vt 0.375000 0.750000
vt 0.875000 0.500000
vt 0.625000 0.250000
vt 0.125000 0.500000
vt 0.375000 0.250000
vt 0.875000 0.750000
vt 0.625000 1.000000
vt 0.625000 0.000000
vt 0.375000 1.000000
vt 0.375000 0.000000
vt 0.125000 0.750000
s 0
usemtl Material.002
f 1/1/1 5/5/1 7/9/1 3/3/1
f 4/4/2 3/3/2 7/10/2 8/12/2
f 8/13/3 7/11/3 5/6/3 6/8/3
f 6/7/4 2/2/4 4/4/4 8/14/4
f 2/2/5 1/1/5 3/3/5 4/4/5
f 6/8/6 5/6/6 1/1/6 2/2/6
